<svg width="40" height="40" viewBox="0 0 40 40" fill="none" xmlns="http://www.w3.org/2000/svg">
<path fill-rule="evenodd" clip-rule="evenodd" d="M20.0165 0.333252C8.94791 0.333252 0 9.34713 0 20.4985C0 29.4124 5.73324 36.9579 13.6868 39.6284C14.6812 39.8292 15.0454 39.1945 15.0454 38.6607C15.0454 38.1932 15.0126 36.5908 15.0126 34.9211C9.4445 36.1233 8.28498 32.5173 8.28498 32.5173C7.39015 30.1803 6.06429 29.5796 6.06429 29.5796C4.24185 28.3443 6.19704 28.3443 6.19704 28.3443C8.21861 28.4779 9.27938 30.4142 9.27938 30.4142C11.0686 33.4855 13.9518 32.6177 15.1118 32.0834C15.2773 30.7813 15.8079 29.8799 16.3713 29.3792C11.9303 28.9118 7.25781 27.1758 7.25781 19.43C7.25781 17.2265 8.05267 15.4237 9.31216 14.0216C9.11344 13.521 8.41732 11.4506 9.51128 8.67969C9.51128 8.67969 11.2014 8.14542 15.0122 10.7496C16.6438 10.3082 18.3263 10.0837 20.0165 10.0818C21.7067 10.0818 23.4295 10.3157 25.0205 10.7496C28.8317 8.14542 30.5218 8.67969 30.5218 8.67969C31.6158 11.4506 30.9192 13.521 30.7205 14.0216C32.0132 15.4237 32.7753 17.2265 32.7753 19.43C32.7753 27.1758 28.1028 28.8782 23.6287 29.3792C24.358 30.0135 24.9873 31.2152 24.9873 33.1184C24.9873 35.8225 24.9545 37.9928 24.9545 38.6603C24.9545 39.1945 25.3192 39.8292 26.3132 39.6288C34.2667 36.9575 39.9999 29.4124 39.9999 20.4985C40.0327 9.34713 31.052 0.333252 20.0165 0.333252Z" fill="black"/>
</svg>
